<svg fill="#000000" xmlns="http://www.w3.org/2000/svg"  viewBox="0 0 100 100" width="100px" height="100px"><path d="M 54.970703 15 A 1.0001 1.0001 0 0 0 54.818359 15.015625 L 16.818359 22.015625 A 1.0001 1.0001 0 0 0 16 23 L 16 75 A 1.0001 1.0001 0 0 0 16.818359 75.984375 L 54.818359 82.984375 A 1.0001 1.0001 0 0 0 56 82 L 56 48.365234 L 57.941406 49.53125 C 58.602947 49.928974 59.438461 49.908213 60.080078 49.480469 L 60.039062 49.507812 L 78 38.763672 L 78 40 L 78 66 C 78 66.56503 77.56503 67 77 67 L 59 67 A 1.0001 1.0001 0 1 0 59 69 L 77 69 C 78.64497 69 80 67.64497 80 66 L 80 40 L 80 37.146484 A 1.0001 1.0001 0 0 0 80 36.837891 L 80 35 L 80 32 C 80 30.35503 78.64497 29 77 29 L 59 29 A 1.0001 1.0001 0 1 0 59 31 L 77 31 C 77.56503 31 78 31.43497 78 32 L 78 35 L 78 36.433594 L 59.011719 47.791016 A 1.0001 1.0001 0 0 0 58.970703 47.816406 L 56 46.033203 L 56 16 A 1.0001 1.0001 0 0 0 54.970703 15 z M 54 17.201172 L 54 46.339844 A 1.0001 1.0001 0 0 0 54 46.816406 L 54 80.798828 L 18 74.167969 L 18 23.833984 L 54 17.201172 z M 51.492188 20.992188 A 0.50005 0.50005 0 0 0 51 21.5 L 51 23.5 A 0.50005 0.50005 0 1 0 52 23.5 L 52 21.5 A 0.50005 0.50005 0 0 0 51.492188 20.992188 z M 51.492188 25.992188 A 0.50005 0.50005 0 0 0 51 26.5 L 51 30.5 A 0.50005 0.50005 0 1 0 52 30.5 L 52 26.5 A 0.50005 0.50005 0 0 0 51.492188 25.992188 z M 51.492188 32.992188 A 0.50005 0.50005 0 0 0 51 33.5 L 51 76.5 A 0.50005 0.50005 0 1 0 52 76.5 L 52 33.5 A 0.50005 0.50005 0 0 0 51.492188 32.992188 z M 35 37 C 29.411961 37 25 42.658659 25 49.5 C 25 56.341341 29.411961 62 35 62 C 40.588039 62 45 56.341341 45 49.5 C 45 42.658659 40.588039 37 35 37 z M 35 38 C 39.905378 38 44 43.086507 44 49.5 C 44 55.913493 39.905378 61 35 61 C 30.094622 61 26 55.913493 26 49.5 C 26 43.086507 30.094622 38 35 38 z M 35 42 C 33.305556 42 32.000773 43.023061 31.191406 44.439453 C 30.38204 45.855845 30 47.678571 30 49.5 C 30 51.321429 30.38204 53.144155 31.191406 54.560547 C 32.000773 55.976939 33.305556 57 35 57 C 36.694444 57 37.999227 55.976939 38.808594 54.560547 C 39.61796 53.144155 40 51.321429 40 49.5 C 40 47.678571 39.61796 45.855845 38.808594 44.439453 C 37.999227 43.023061 36.694444 42 35 42 z M 35 43 C 36.305555 43 37.250774 43.726939 37.941406 44.935547 C 38.632039 46.144155 39 47.821429 39 49.5 C 39 51.178571 38.632039 52.855845 37.941406 54.064453 C 37.250774 55.273061 36.305555 56 35 56 C 33.694445 56 32.749226 55.273061 32.058594 54.064453 C 31.367961 52.855845 31 51.178571 31 49.5 C 31 47.821429 31.367961 46.144155 32.058594 44.935547 C 32.749226 43.726939 33.694445 43 35 43 z M 75.492188 45.992188 A 0.50005 0.50005 0 0 0 75 46.5 L 75 48.5 A 0.50005 0.50005 0 1 0 76 48.5 L 76 46.5 A 0.50005 0.50005 0 0 0 75.492188 45.992188 z M 75.492188 50.992188 A 0.50005 0.50005 0 0 0 75 51.5 L 75 64.5 A 0.50005 0.50005 0 1 0 76 64.5 L 76 51.5 A 0.50005 0.50005 0 0 0 75.492188 50.992188 z"/></svg>